<svg xmlns="http://www.w3.org/2000/svg" width="20" height="20" viewBox="0 0 20 20" fill="none">
  <path d="M3.75 1.66675V5.41675" stroke="#1E2A3B" stroke-width="1.5" stroke-linecap="round" stroke-linejoin="round"/>
  <path d="M5 5.41675H2.5" stroke="#1E2A3B" stroke-width="1.5" stroke-linecap="round" stroke-linejoin="round"/>
  <path d="M5 11.25H2.5" stroke="#1E2A3B" stroke-width="1.5" stroke-linecap="round" stroke-linejoin="round"/>
  <path d="M2.5 8.33314C2.5 8.33314 3.75 7.08314 4.58333 8.33314C5.41667 9.58318 2.5 11.2498 2.5 11.2498" stroke="#1E2A3B" stroke-width="1.5" stroke-linecap="round" stroke-linejoin="round"/>
  <path d="M2.5 14.375C2.5 14.375 3.33334 13.125 4.58335 13.9583C5.83335 14.7917 4.58335 15.8333 4.58335 15.8333C4.58335 15.8333 5.83335 16.875 4.58335 17.7083C3.33333 18.5417 2.5 17.2917 2.5 17.2917" stroke="#1E2A3B" stroke-width="1.5" stroke-linecap="round" stroke-linejoin="round"/>
  <path d="M4.58333 15.8333H3.75" stroke="#1E2A3B" stroke-width="1.5" stroke-linecap="round" stroke-linejoin="round"/>
  <path d="M3.75 1.66675L2.5 2.50008" stroke="#1E2A3B" stroke-width="1.5" stroke-linecap="round" stroke-linejoin="round"/>
  <path d="M8.75 10H17.9167" stroke="#1E2A3B" stroke-width="1.5" stroke-linecap="round" stroke-linejoin="round"/>
  <path d="M8.75 15.8333H17.9167" stroke="#1E2A3B" stroke-width="1.5" stroke-linecap="round" stroke-linejoin="round"/>
  <path d="M8.75 4.16675H17.9167" stroke="#1E2A3B" stroke-width="1.5" stroke-linecap="round" stroke-linejoin="round"/>
</svg>