<svg xmlns="http://www.w3.org/2000/svg" width="12" height="12" viewBox="0 0 12 12" fill="none">
  <g clip-path="url(#clip0_106_586)">
    <path d="M6 11C7.3807 11 8.6307 10.4404 9.53553 9.53553C10.4404 8.6307 11 7.3807 11 6C11 4.6193 10.4404 3.3693 9.53553 2.46446C8.6307 1.55964 7.3807 1 6 1C4.6193 1 3.3693 1.55964 2.46446 2.46446C1.55964 3.3693 1 4.6193 1 6C1 7.3807 1.55964 8.6307 2.46446 9.53553C3.3693 10.4404 4.6193 11 6 11Z" fill="#1B998B"/>
    <path fill-rule="evenodd" clip-rule="evenodd" d="M2.11091 2.11091C3.10568 1.11616 4.48137 0.5 6 0.5C7.51863 0.5 8.89432 1.11616 9.88908 2.11091L9.53553 2.46446L9.88908 2.11091C10.8838 3.10568 11.5 4.48136 11.5 6C11.5 7.51864 10.8838 8.89432 9.88908 9.88908C8.89432 10.8838 7.51864 11.5 6 11.5C4.48136 11.5 3.10568 10.8838 2.11091 9.88908L2.46446 9.53553L2.11091 9.88908C1.11616 8.89432 0.5 7.51863 0.5 6C0.5 4.48137 1.11616 3.10568 2.11091 2.11091L2.11091 2.11091ZM6 1.5C4.75723 1.5 3.63292 2.00313 2.81802 2.81802C2.00313 3.63292 1.5 4.75723 1.5 6C1.5 7.24277 2.00313 8.36708 2.81802 9.18197C3.63292 9.99686 4.75724 10.5 6 10.5C7.24276 10.5 8.36708 9.99686 9.18197 9.18197C9.99686 8.36708 10.5 7.24276 10.5 6C10.5 4.75724 9.99686 3.63292 9.18197 2.81802C8.36708 2.00313 7.24277 1.5 6 1.5Z" fill="#1B998B"/>
    <path fill-rule="evenodd" clip-rule="evenodd" d="M8.85355 4.14645C9.04882 4.34171 9.04882 4.65829 8.85355 4.85355L5.85355 7.85355C5.65829 8.04882 5.34171 8.04882 5.14645 7.85355L3.64645 6.35355C3.45118 6.15829 3.45118 5.84171 3.64645 5.64645C3.84171 5.45118 4.15829 5.45118 4.35355 5.64645L5.5 6.79289L8.14645 4.14645C8.34171 3.95118 8.65829 3.95118 8.85355 4.14645Z" fill="white"/>
  </g>
  <defs>
    <clipPath id="clip0_106_586">
      <rect width="12" height="12" fill="white"/>
    </clipPath>
  </defs>
</svg>