<svg xmlns="http://www.w3.org/2000/svg" width="20" height="20" viewBox="0 0 20 20" fill="none">
  <g clip-path="url(#clip0_5_6073)">
    <path fill-rule="evenodd" clip-rule="evenodd" d="M9.99992 0.833328C7.46886 0.833328 5.17605 1.86026 3.51811 3.51818C1.86019 5.17612 0.833252 7.46894 0.833252 9.99999C0.833252 12.531 1.86019 14.8239 3.51811 16.4818C5.17605 18.1397 7.46886 19.1667 9.99992 19.1667C12.531 19.1667 14.8238 18.1397 16.4817 16.4818C18.1396 14.8239 19.1666 12.5311 19.1666 9.99999C19.1666 7.46893 18.1396 5.17612 16.4817 3.51818C14.8238 1.86026 12.531 0.833328 9.99992 0.833328ZM4.69661 4.6967C6.05478 3.33855 7.92864 2.49999 9.99992 2.49999C12.0712 2.49999 13.9451 3.33855 15.3032 4.69669C16.6614 6.05486 17.4999 7.92872 17.4999 9.99999C17.4999 12.0713 16.6614 13.9451 15.3032 15.3033C13.9451 16.6614 12.0712 17.5 9.99992 17.5C7.92864 17.5 6.05478 16.6614 4.69662 15.3033C3.33847 13.9451 2.49992 12.0713 2.49992 9.99999C2.49992 7.92872 3.33846 6.05487 4.69661 4.6967Z" fill="#FF6F59"/>
    <path fill-rule="evenodd" clip-rule="evenodd" d="M4.69661 4.6967C6.05478 3.33855 7.92864 2.49999 9.99992 2.49999C12.0712 2.49999 13.9451 3.33855 15.3032 4.69669C16.6614 6.05486 17.4999 7.92872 17.4999 9.99999C17.4999 12.0713 16.6614 13.9451 15.3032 15.3033C13.9451 16.6614 12.0712 17.5 9.99992 17.5C7.92864 17.5 6.05478 16.6614 4.69662 15.3033C3.33847 13.9451 2.49992 12.0713 2.49992 9.99999C2.49992 7.92872 3.33846 6.05487 4.69661 4.6967ZM8.54158 8.33333C8.54158 7.87309 8.91468 7.49999 9.37492 7.49999H10.2083C10.6685 7.49999 11.0416 7.87309 11.0416 8.33333V14.1667C11.0416 14.6269 10.6685 15 10.2083 15C9.74801 15 9.37492 14.6269 9.37492 14.1667V9.16666C8.91468 9.16666 8.54158 8.79357 8.54158 8.33333Z" fill="#FF6F59"/>
    <path fill-rule="evenodd" clip-rule="evenodd" d="M7.91675 14.1667C7.91675 13.7064 8.28984 13.3333 8.75008 13.3333H11.6667C12.127 13.3333 12.5001 13.7064 12.5001 14.1667C12.5001 14.6269 12.127 15 11.6667 15H8.75008C8.28984 15 7.91675 14.6269 7.91675 14.1667Z" fill="white"/>
    <path fill-rule="evenodd" clip-rule="evenodd" d="M9.99992 4.58333C10.5752 4.58333 11.0416 5.0497 11.0416 5.62499C11.0416 6.20029 10.5752 6.66666 9.99992 6.66666C9.42463 6.66666 8.95825 6.20029 8.95825 5.62499C8.95825 5.0497 9.42463 4.58333 9.99992 4.58333Z" fill="white"/>
  </g>
  <defs>
    <clipPath id="clip0_5_6073">
      <rect width="20" height="20" fill="white"/>
    </clipPath>
  </defs>
</svg>